<?xml version="1.0" encoding="utf-8"?>
<!-- Generator: Adobe Illustrator 21.0.0, SVG Export Plug-In . SVG Version: 6.00 Build 0)  -->
<svg version="1.1" id="Layer_1" xmlns="http://www.w3.org/2000/svg" xmlns:xlink="http://www.w3.org/1999/xlink" x="0px" y="0px"
	 width="32px" height="32px" viewBox="0 0 20 20" style="enable-background:new 0 0 20 20;" xml:space="preserve">
<style type="text/css">
	.st0{fill:#000;}
</style>
<g>
	<g>
		<path class="st0" d="M18,5c0,0.6-0.5,1-1,1H3C2.5,6,2,5.6,2,5l0,0c0-0.6,0.5-1,1-1h14C17.5,4,18,4.4,18,5L18,5z"/>
	</g>
	<g>
		<path class="st0" d="M18,10c0,0.6-0.5,1-1,1H3c-0.5,0-1-0.4-1-1l0,0c0-0.6,0.5-1,1-1h14C17.5,9,18,9.4,18,10L18,10z"/>
	</g>
	<g>
		<path class="st0" d="M18,15c0,0.6-0.5,1-1,1H3c-0.5,0-1-0.4-1-1l0,0c0-0.6,0.5-1,1-1h14C17.5,14,18,14.4,18,15L18,15z"/>
	</g>
</g>
</svg>
